<svg xmlns="http://www.w3.org/2000/svg" xmlns:xlink="http://www.w3.org/1999/xlink" version="1.1" width="30" height="30" viewBox="0 0 256 256" xml:space="preserve">
<desc>Created with Fabric.js 1.7.22</desc>
<defs>
</defs>
<g transform="translate(128 128) scale(0.72 0.72)" style="">
	<g style="stroke: none; stroke-width: 0; stroke-dasharray: none; stroke-linecap: butt; stroke-linejoin: miter; stroke-miterlimit: 10; fill: none; fill-rule: nonzero; opacity: 1;" transform="translate(-175.05 -175.05000000000004) scale(3.89 3.89)" >
	<path d="M 72.763 61.915 H 29.02 c -5.19 0 -9.751 -3.682 -10.847 -8.755 l -6.507 -30.136 c -0.191 -0.887 0.029 -1.812 0.598 -2.518 s 1.428 -1.116 2.334 -1.116 H 87 c 0.903 0 1.76 0.407 2.329 1.109 s 0.793 1.623 0.607 2.507 l -6.313 30.09 C 82.55 58.207 77.982 61.915 72.763 61.915 z M 18.315 25.391 l 5.723 26.503 c 0.503 2.329 2.598 4.021 4.981 4.021 h 43.743 c 2.397 0 4.495 -1.703 4.988 -4.05 l 5.555 -26.474 H 18.315 z" style="stroke: none; stroke-width: 1; stroke-dasharray: none; stroke-linecap: butt; stroke-linejoin: miter; stroke-miterlimit: 10; fill: rgb(255,46,216); fill-rule: nonzero; opacity: 1;" transform=" matrix(1 0 0 1 0 0) " stroke-linecap="round" />
	<circle cx="28.76" cy="74.14" r="7.5" style="stroke: none; stroke-width: 1; stroke-dasharray: none; stroke-linecap: butt; stroke-linejoin: miter; stroke-miterlimit: 10; fill: rgb(255,46,216); fill-rule: nonzero; opacity: 1;" transform="  matrix(1 0 0 1 0 0) "/>
	<circle cx="72.29" cy="74.14" r="7.5" style="stroke: none; stroke-width: 1; stroke-dasharray: none; stroke-linecap: butt; stroke-linejoin: miter; stroke-miterlimit: 10; fill: rgb(255,46,216); fill-rule: nonzero; opacity: 1;" transform="  matrix(1 0 0 1 0 0) "/>
	<path d="M 14.596 25.392 c -1.382 0 -2.626 -0.961 -2.93 -2.367 l -1.267 -5.869 c -0.35 -1.623 -1.81 -2.8 -3.469 -2.8 H 3 c -1.657 0 -3 -1.343 -3 -3 s 1.343 -3 3 -3 h 3.93 c 4.465 0 8.391 3.168 9.334 7.533 l 1.268 5.87 c 0.35 1.62 -0.68 3.216 -2.299 3.566 C 15.019 25.37 14.806 25.392 14.596 25.392 z" style="stroke: none; stroke-width: 1; stroke-dasharray: none; stroke-linecap: butt; stroke-linejoin: miter; stroke-miterlimit: 10; fill: rgb(255,46,216); fill-rule: nonzero; opacity: 1;" transform=" matrix(1 0 0 1 0 0) " stroke-linecap="round" />
	<path d="M 50.854 48.945 c -1.657 0 -3 -1.344 -3 -3 V 33.751 c 0 -1.657 1.343 -3 3 -3 s 3 1.343 3 3 v 12.193 C 53.854 47.603 52.511 48.945 50.854 48.945 z" style="stroke: none; stroke-width: 1; stroke-dasharray: none; stroke-linecap: butt; stroke-linejoin: miter; stroke-miterlimit: 10; fill: rgb(255,46,216); fill-rule: nonzero; opacity: 1;" transform=" matrix(1 0 0 1 0 0) " stroke-linecap="round" />
	<path d="M 65.74 48.945 c -0.172 0 -0.345 -0.015 -0.52 -0.045 c -1.632 -0.285 -2.725 -1.839 -2.439 -3.471 l 2.126 -12.193 c 0.284 -1.634 1.837 -2.726 3.471 -2.44 c 1.632 0.285 2.725 1.839 2.439 3.471 L 68.691 46.46 C 68.438 47.918 67.171 48.945 65.74 48.945 z" style="stroke: none; stroke-width: 1; stroke-dasharray: none; stroke-linecap: butt; stroke-linejoin: miter; stroke-miterlimit: 10; fill: rgb(255,46,216); fill-rule: nonzero; opacity: 1;" transform=" matrix(1 0 0 1 0 0) " stroke-linecap="round" />
	<path d="M 35.859 48.945 c -1.431 0 -2.698 -1.027 -2.952 -2.485 l -2.126 -12.193 c -0.285 -1.632 0.808 -3.186 2.44 -3.471 c 1.632 -0.284 3.186 0.808 3.471 2.44 l 2.126 12.193 c 0.285 1.632 -0.808 3.186 -2.44 3.471 C 36.203 48.931 36.03 48.945 35.859 48.945 z" style="stroke: none; stroke-width: 1; stroke-dasharray: none; stroke-linecap: butt; stroke-linejoin: miter; stroke-miterlimit: 10; fill: rgb(255,46,216); fill-rule: nonzero; opacity: 1;" transform=" matrix(1 0 0 1 0 0) " stroke-linecap="round" />
</g>
</g>
</svg>